PathFileType	4	(X/Y/Z)	C:\Users\Willi\SynologyDrive\Deimel_MSc_Deadlift\Athlete_03\Athlete_3_22_07_06\dl_80\marker_experimental.trc
DataRate	CameraRate	NumFrames	NumMarkers	Units	OrigDataRate	OrigDataStartFrame	OrigNumFrames
200.000000	200.000000	4	59	mm	200.000000	2894	3308
Frame#	Time	BL			BR			GLAB			RFHD			LFHD			C7			T6			SPINMOL			SPINM2			SPINM3			T12			BELTOL			BELT2			BELT3			SACROL			SACR2			SACR3			LTHOL			LTH2			LTH3			LSHAOL			LSHA2			LSHA3			LHEE			LTOE			LM5			RTHOL			RTH2			RTH3			RSHAOL			RSHA2			RSHA3			RHEE			RTOE			RM5			STRN			XIPH			LACR			LUAOL			LUA2			LUA3			LLAOL			LLA2			LLA3			LWRU			RACR			RUAOL			RUA2			RUA3			RLAOL			RLA2			RLA3			RWRU			USERMO0			USERMO1			USERMO2			USERMO3			USERMO4			USERMO5			
		X1	Y1	Z1	X2	Y2	Z2	X3	Y3	Z3	X4	Y4	Z4	X5	Y5	Z5	X6	Y6	Z6	X7	Y7	Z7	X8	Y8	Z8	X9	Y9	Z9	X10	Y10	Z10	X11	Y11	Z11	X12	Y12	Z12	X13	Y13	Z13	X14	Y14	Z14	X15	Y15	Z15	X16	Y16	Z16	X17	Y17	Z17	X18	Y18	Z18	X19	Y19	Z19	X20	Y20	Z20	X21	Y21	Z21	X22	Y22	Z22	X23	Y23	Z23	X24	Y24	Z24	X25	Y25	Z25	X26	Y26	Z26	X27	Y27	Z27	X28	Y28	Z28	X29	Y29	Z29	X30	Y30	Z30	X31	Y31	Z31	X32	Y32	Z32	X33	Y33	Z33	X34	Y34	Z34	X35	Y35	Z35	X36	Y36	Z36	X37	Y37	Z37	X38	Y38	Z38	X39	Y39	Z39	X40	Y40	Z40	X41	Y41	Z41	X42	Y42	Z42	X43	Y43	Z43	X44	Y44	Z44	X45	Y45	Z45	X46	Y46	Z46	X47	Y47	Z47	X48	Y48	Z48	X49	Y49	Z49	X50	Y50	Z50	X51	Y51	Z51	X52	Y52	Z52	X53	Y53	Z53	X54	Y54	Z54	X55	Y55	Z55	X56	Y56	Z56	X57	Y57	Z57	X58	Y58	Z58	X59	Y59	Z59	

2895	14.47	143.2489318847656	245.186737060547	-2311.010009765625	163.0268402099609	247.4010162353516	-87.57814788818358	514.3284301757812	877.6957397460939	-1183.474365234375	511.9725952148438	943.2517089843751	-1109.5654296875	512.818603515625	934.5625610351564	-1267.980712890625	319.6227722167969	1043.346069335938	-1196.78857421875	123.7058715820312	1027.617797851562	-1206.458251953125	94.97273254394531	1024.871337890625	-1209.319458007812	38.59347152709961	1012.898498535156	-1153.86279296875	35.50518035888672	1008.051513671875	-1203.200439453125	0.05778242275118828	991.2762451171876	-1204.994018554688	-46.27561187744141	1006.43603515625	-1209.282348632812	-101.8159332275391	981.0958862304689	-1157.73291015625	-104.6131286621094	984.5951538085939	-1207.674926757812	-176.3336181640625	925.1728515625001	-1226.966186523438	-165.8415374755859	928.0689697265626	-1177.090698242188	-223.0845489501953	897.6047973632814	-1188.6953125	-31.43406105041504	687.8175048828126	-1430.774291992188	-30.87297058105469	608.2028808593751	-1424.755859375	8.080531120300293	640.3532714843751	-1426.981567382812	90.95230865478516	339.6426696777345	-1431.02880859375	46.75121307373047	274.4753417968751	-1425.297119140625	96.32711791992188	277.9719848632814	-1425.125244140625	0.481058806180954	66.36595916748055	-1333.489135742188	210.05078125	74.32906341552743	-1351.859497070312	158.9813079833984	53.68545150756845	-1455.032592773438	-23.02924346923828	655.4779052734376	-988.8656616210938	54.82569885253906	637.6939086914064	-987.9986572265625	15.51927375793457	606.7329711914064	-989.8702392578125	70.04673767089844	334.3769836425782	-990.7576904296875	107.9261093139648	264.7229309082032	-995.3522338867188	58.96346282958984	274.8865966796876	-1001.135864257812	1.866621613502502	65.3798904418946	-1101.67431640625	210.7445526123047	67.98773193359382	-1061.3662109375	153.9538726806641	66.2752304077149	-968.375732421875	305.7051696777344	874.4383544921876	-1202.722900390625	184.8386688232422	773.6525268554689	-1191.455688476562	298.4208068847656	917.5390625000001	-1402.339721679688	246.5657348632812	789.8540039062501	-1463.68408203125	208.7825775146484	740.1193847656251	-1486.36083984375	251.1994018554688	724.2821655273439	-1461.838500976562	216.6256713867188	505.3100891113282	-1465.66259765625	192.3743286132812	445.6129150390626	-1474.93212890625	224.3809204101562	448.8912658691407	-1436.818725585938	198.6262969970703	354.1988830566407	-1452.920532226562	300.2118225097656	913.8476562500001	-1007.260803222656	253.4912261962891	749.5565795898439	-973.4005126953125	258.1752014160156	691.0634155273439	-1003.331787109375	238.9878387451172	686.8562622070314	-956.8155517578125	219.4162445068359	493.2273864746094	-967.8344116210938	223.4620819091797	437.7164611816407	-999.61767578125	203.575439453125	433.9855651855469	-952.3740844726562	192.7188262939453	356.4017944335938	-954.3804931640625	0.04040180146694183	0.01404449995607138	-0.06241250038146973	0.02589019946753979	0.02532180026173592	-0.01062569953501224	0.0103836003690958	0.01116199977695942	-0.01783080026507378	0.02126719988882542	2.140429973602295	-2.117889881134033	2.334059953689575	2.939120054244995	-2.177390098571777	2.69461989402771	0	0	
2896	14.475	143.2417755126953	245.2603912353517	-2311.0380859375	162.8626251220703	247.4272308349609	-87.56492614746092	514.8306274414062	877.1133422851564	-1183.410888671875	512.5116577148438	942.6964111328126	-1109.50048828125	513.3711547851562	933.9572753906251	-1267.927734375	320.3205261230469	1042.996215820312	-1196.770751953125	124.3784713745117	1027.556518554688	-1206.505249023438	95.63087463378906	1024.854614257812	-1209.3759765625	39.21171569824219	1012.96044921875	-1153.941650390625	36.13700103759766	1008.120483398438	-1203.287475585938	0.6358170509338379	991.3654174804689	-1205.075561523438	-45.71820449829102	1006.620056152344	-1209.3857421875	-101.3022842407227	981.3401489257814	-1157.853515625	-104.0801467895508	984.8409423828126	-1207.796630859375	-175.8511505126953	925.4609375000001	-1227.11572265625	-165.3768310546875	928.3533935546876	-1177.230102539062	-222.6468353271484	897.9478759765626	-1188.850341796875	-31.11576461791992	687.9380493164064	-1430.817138671875	-30.61977386474609	608.3257446289064	-1424.768798828125	8.360165596008301	640.4447021484376	-1426.994018554688	91.03038024902344	339.658905029297	-1430.996948242188	46.81219863891602	274.4982910156251	-1425.2744140625	96.39007568359375	277.9856567382814	-1425.1103515625	0.4873723983764648	66.37509918212899	-1333.488403320312	210.0557403564453	74.32411956787118	-1351.849731445312	158.9817352294922	53.68975067138681	-1455.024169921875	-22.91836547851562	655.6361083984376	-988.9092407226562	54.92448425292969	637.7848510742189	-988.012451171875	15.59054756164551	606.8559570312501	-989.8878173828125	69.99861145019531	334.4020690917969	-990.7515869140625	107.8760147094727	264.7426147460938	-995.3201904296875	58.91899108886719	274.9101257324219	-1001.132507324219	1.86177670955658	65.38551330566413	-1101.67138671875	210.7401733398438	67.99537658691413	-1061.357666015625	153.9492645263672	66.26844024658209	-968.36474609375	306.1494140625	874.1128540039064	-1202.69482421875	185.0873107910156	773.5385742187501	-1191.464965820312	299.0311584472656	917.2602539062501	-1402.3408203125	247.0420837402344	789.6350097656251	-1463.710815429688	209.2086181640625	739.9321899414064	-1486.369140625	251.6297454833984	724.0626220703126	-1461.880615234375	216.9062194824219	505.0888977050782	-1465.509643554688	192.6071929931641	445.4344787597657	-1474.857299804688	224.52197265625	448.662811279297	-1436.665405273438	198.6578369140625	354.0032958984376	-1452.845092773438	300.6839904785156	913.5627441406251	-1007.181091308594	253.7939605712891	749.3186035156251	-973.22705078125	258.4705505371094	690.8079833984376	-1003.134948730469	239.1682739257812	686.6380615234376	-956.6690063476562	219.5168914794922	493.0442810058594	-967.8575439453125	223.4872283935547	437.5350952148438	-999.6544189453125	203.6472778320312	433.8065490722657	-952.392333984375	192.6803588867188	356.2430114746094	-954.3594970703125	0.03970029950141907	0.01359349954873324	-0.06201739981770515	0.02424759976565838	0.02441670000553131	-0.01041079964488745	0.009859239682555199	0.01127520017325878	-0.0166724007576704	0.02149719931185246	2.136199951171875	-2.10605001449585	2.339770078659058	2.939640045166016	-2.192600011825562	2.690720081329346	0	0	
2897	14.48	143.2324981689453	245.3318939208986	-2311.065185546875	162.6997680664062	247.4734344482422	-87.55456542968749	515.3184204101562	876.5040893554689	-1183.365600585938	513.0468139648438	942.1143188476564	-1109.442504882812	513.9132080078125	933.3328857421876	-1267.88427734375	321.0119018554688	1042.641723632812	-1196.75048828125	125.0402679443359	1027.485107421875	-1206.536743164062	96.28010559082031	1024.827026367188	-1209.417602539062	39.82279205322266	1013.006103515625	-1154.004760742188	36.76070404052734	1008.176025390625	-1203.358764648438	1.208125829696655	991.4433593750001	-1205.142211914062	-45.1603889465332	1006.792541503906	-1209.475830078125	-100.7869720458984	981.5710449218751	-1157.960693359375	-103.5468215942383	985.0755004882814	-1207.904663085938	-175.3701477050781	925.7385864257814	-1227.2509765625	-164.9116973876953	928.6243896484376	-1177.355712890625	-222.2093963623047	898.2794189453126	-1188.992309570312	-30.79744529724121	688.0540161132814	-1430.853515625	-30.36532783508301	608.4457397460939	-1424.7705078125	8.640118598937988	640.5328369140626	-1426.996215820312	91.10887145996094	339.6762084960939	-1430.953735351562	46.8724479675293	274.5239257812501	-1425.2431640625	96.45311737060547	277.9998779296876	-1425.085815429688	0.4935527443885803	66.38405609130868	-1333.486083984375	210.0607757568359	74.31867218017587	-1351.838134765625	158.9823303222656	53.69571304321298	-1455.014038085938	-22.80061721801758	655.7792968750001	-988.9586181640625	55.03198623657227	637.8676757812501	-988.036376953125	15.67322254180908	606.9673461914064	-989.9148559570312	69.96263122558594	334.4271240234376	-990.7626342773438	107.8347854614258	264.7617492675782	-995.3027954101562	58.88328552246094	274.9347839355469	-1001.141967773438	1.856876969337463	65.3904113769532	-1101.6708984375	210.7365570068359	68.00167846679695	-1061.352172851562	153.9459228515625	66.26395416259771	-968.3575439453125	306.5887451171875	873.7798461914064	-1202.667602539062	185.3325042724609	773.4141235351564	-1191.489135742188	299.6353454589844	916.9876098632814	-1402.330444335938	247.559814453125	789.3975830078126	-1463.697387695312	209.6897583007812	739.7139892578126	-1486.331909179688	252.107421875	723.8259887695314	-1461.854858398438	217.2237854003906	504.8696289062501	-1465.307250976562	192.8841400146484	445.2618103027345	-1474.756225585938	224.6855316162109	448.429656982422	-1436.465698242188	198.7119140625	353.8054809570314	-1452.7509765625	301.1647033691406	913.2835083007814	-1007.112731933594	254.1353912353516	749.0843505859376	-973.102294921875	258.7930908203125	690.5615844726564	-1002.999389648438	239.4045867919922	686.4199218750001	-956.5723876953125	219.6411743164062	492.8626403808594	-967.9070434570312	223.5286102294922	437.3512573242188	-999.71484375	203.745849609375	433.6282348632813	-952.4304809570312	192.6604156494141	356.0859680175782	-954.3509521484375	0.03938620164990425	0.01316429954022169	-0.06183839961886406	0.02259109914302826	0.02355840057134628	-0.01022769976407289	0.00937379989773035	0.01139140035957098	-0.01560959964990616	0.02191069908440113	2.132839918136597	-2.09431004524231	2.340679883956909	2.940160036087036	-2.208039999008179	2.687609910964966	0	0	
2898	14.485	143.2209320068359	245.4015502929689	-2311.090087890625	162.5386505126953	247.5337524414062	-87.5470504760742	515.7940063476562	875.8741455078126	-1183.33740234375	513.5790405273438	941.5108642578126	-1109.3916015625	514.4447631835938	932.6951293945314	-1267.849975585938	321.6958618164062	1042.284301757812	-1196.726806640625	125.6915054321289	1027.404541015625	-1206.553955078125	96.92055511474609	1024.789428710938	-1209.445068359375	40.42755126953125	1013.036926269531	-1154.052001953125	37.37657165527344	1008.219299316406	-1203.414184570312	1.775224447250366	991.5111694335939	-1205.193603515625	-44.60164260864258	1006.953857421875	-1209.551879882812	-100.2693252563477	981.7890625000001	-1158.05322265625	-103.0126495361328	985.2991943359376	-1207.998046875	-174.8901977539062	926.0059814453126	-1227.370361328125	-164.4454498291016	928.8822021484376	-1177.46630859375	-221.7716064453125	898.5994262695314	-1189.11962890625	-30.47920799255371	688.1672363281251	-1430.88330078125	-30.11004257202148	608.5640869140626	-1424.763305664062	8.920139312744141	640.6192016601564	-1426.989501953125	91.18769836425781	339.6945190429689	-1430.901611328125	46.93252944946289	274.551483154297	-1425.204223632812	96.51618957519531	278.0144042968751	-1425.053588867188	0.4995581209659576	66.3928985595704	-1333.482543945312	210.0658111572266	74.31291198730477	-1351.825439453125	158.9831085205078	53.70289993286142	-1455.0029296875	-22.6732006072998	655.9085083007814	-989.0140991210938	55.15079879760742	637.9426879882814	-988.0714111328125	15.7696647644043	607.0679321289064	-989.9520263671875	69.94093322753906	334.4525756835938	-990.7894287109375	107.8045959472656	264.7803344726563	-995.3003540039062	58.85829544067383	274.9605712890626	-1001.163879394531	1.852096319198608	65.39479827880866	-1101.672973632812	210.73388671875	68.0063781738282	-1061.349975585938	153.9440155029297	66.26181030273443	-968.3543090820312	307.0234680175781	873.4412841796876	-1202.640747070312	185.5751647949219	773.2809448242189	-1191.523681640625	300.2339782714844	916.7194824218751	-1402.306518554688	248.1176300048828	789.1436157226564	-1463.645629882812	210.2244415283203	739.4680175781251	-1486.255493164062	252.6290130615234	723.5738525390626	-1461.765014648438	217.5710601806641	504.6547241210939	-1465.06787109375	193.1968536376953	445.0951232910157	-1474.63525390625	224.8669586181641	448.1941528320314	-1436.229248046875	198.7847747802734	353.6071777343751	-1452.64208984375	301.65380859375	913.0100097656251	-1007.058837890625	254.5103759765625	748.8551025390626	-973.0303344726562	259.134521484375	690.3261108398439	-1002.929748535156	239.6932220458984	686.2034301757814	-956.52783203125	219.7807312011719	492.6835937500001	-967.974853515625	223.5830841064453	437.1660461425782	-999.7901611328125	203.8618011474609	433.4512939453126	-952.482421875	192.6551055908203	355.9314575195313	-954.3533325195312	0.03951289877295494	0.01277290005236864	-0.06184430047869682	0.02097650058567524	0.02278980053961277	-0.01007580012083053	0.008931299671530724	0.01149460021406412	-0.01465259958058596	0.02244950085878372	2.130660057067871	-2.083300113677979	2.336940050125122	2.940680027008057	-2.223439931869507	2.685630083084106	0	0	
